<svg width="375" height="248" viewBox="0 0 375 248" fill="none" xmlns="http://www.w3.org/2000/svg">
<path d="M-266 4.34018C-276.333 -1.44673 -286.667 -1.44673 -297 4.34018V222H633V4.34018C622.667 10.1271 612.333 10.1271 602 4.34018C591.667 -1.44673 581.333 -1.44673 571 4.34018C560.667 10.1271 550.333 10.1271 540 4.34018C529.667 -1.44673 519.333 -1.44673 509 4.34018C498.667 10.1271 488.333 10.1271 478 4.34018C467.667 -1.44673 457.333 -1.44673 447 4.34018C436.667 10.1271 426.333 10.1271 416 4.34018C405.667 -1.44673 395.333 -1.44673 385 4.34018C374.667 10.1271 364.333 10.1271 354 4.34018C343.667 -1.44673 333.333 -1.44673 323 4.34018C312.667 10.1271 302.333 10.1271 292 4.34018C281.667 -1.44673 271.333 -1.44673 261 4.34018C250.667 10.1271 240.333 10.1271 230 4.34018C219.667 -1.44673 209.333 -1.44673 199 4.34018C188.667 10.1271 178.333 10.1271 168 4.34018C157.667 -1.44673 147.333 -1.44673 137 4.34018C126.667 10.1271 116.333 10.1271 106 4.34018C95.6667 -1.44673 85.3333 -1.44673 75 4.34018C64.6667 10.1271 54.3333 10.1271 44 4.34018C33.6667 -1.44673 23.3333 -1.44673 13 4.34018C2.66666 10.1271 -7.66669 10.1271 -18 4.34018C-28.3333 -1.44673 -38.6667 -1.44673 -49 4.34018C-59.3333 10.1271 -69.6667 10.1271 -80 4.34018C-90.3333 -1.44673 -100.667 -1.44673 -111 4.34018C-121.333 10.1271 -131.667 10.1271 -142 4.34018C-152.333 -1.44673 -162.667 -1.44673 -173 4.34018C-183.333 10.1271 -193.667 10.1271 -204 4.34018C-214.333 -1.44673 -224.667 -1.44673 -235 4.34018C-245.333 10.1271 -255.667 10.1271 -266 4.34018Z" fill="url(#paint0_linear_504:12058)"/>
<path d="M-298 14.4184C-308.333 8.52721 -318.667 8.52721 -329 14.4184V236H601V14.4184C590.667 20.3095 580.333 20.3095 570 14.4184C559.667 8.52721 549.333 8.52721 539 14.4184C528.667 20.3095 518.333 20.3095 508 14.4184C497.667 8.52721 487.333 8.52721 477 14.4184C466.667 20.3095 456.333 20.3095 446 14.4184C435.667 8.52721 425.333 8.52721 415 14.4184C404.667 20.3095 394.333 20.3095 384 14.4184C373.667 8.52721 363.333 8.52721 353 14.4184C342.667 20.3095 332.333 20.3095 322 14.4184C311.667 8.52721 301.333 8.52721 291 14.4184C280.667 20.3095 270.333 20.3095 260 14.4184C249.667 8.52721 239.333 8.52721 229 14.4184C218.667 20.3095 208.333 20.3095 198 14.4184C187.667 8.52721 177.333 8.52721 167 14.4184C156.667 20.3095 146.333 20.3095 136 14.4184C125.667 8.52721 115.333 8.52721 105 14.4184C94.6667 20.3095 84.3333 20.3095 74 14.4184C63.6667 8.52721 53.3333 8.52721 43 14.4184C32.6667 20.3095 22.3334 20.3095 12 14.4184C1.66669 8.52721 -8.66666 8.52721 -19 14.4184C-29.3333 20.3095 -39.6667 20.3095 -50 14.4184C-60.3333 8.52721 -70.6667 8.52721 -81 14.4184C-91.3333 20.3095 -101.667 20.3095 -112 14.4184C-122.333 8.52721 -132.667 8.52721 -143 14.4184C-153.333 20.3095 -163.667 20.3095 -174 14.4184C-184.333 8.52721 -194.667 8.52721 -205 14.4184C-215.333 20.3095 -225.667 20.3095 -236 14.4184C-246.333 8.52721 -256.667 8.52721 -267 14.4184C-277.333 20.3095 -287.667 20.3095 -298 14.4184Z" fill="url(#paint1_linear_504:12058)"/>
<path d="M-344 26.4184C-354.333 20.5272 -364.667 20.5272 -375 26.4184V248H555V26.4184C544.667 32.3095 534.333 32.3095 524 26.4184C513.667 20.5272 503.333 20.5272 493 26.4184C482.667 32.3095 472.333 32.3095 462 26.4184C451.667 20.5272 441.333 20.5272 431 26.4184C420.667 32.3095 410.333 32.3095 400 26.4184C389.667 20.5272 379.333 20.5272 369 26.4184C358.667 32.3095 348.333 32.3095 338 26.4184C327.667 20.5272 317.333 20.5272 307 26.4184C296.667 32.3095 286.333 32.3095 276 26.4184C265.667 20.5272 255.333 20.5272 245 26.4184C234.667 32.3095 224.333 32.3095 214 26.4184C203.667 20.5272 193.333 20.5272 183 26.4184C172.667 32.3095 162.333 32.3095 152 26.4184C141.667 20.5272 131.333 20.5272 121 26.4184C110.667 32.3095 100.333 32.3095 90 26.4184C79.6667 20.5272 69.3333 20.5272 59 26.4184C48.6667 32.3095 38.3333 32.3095 28 26.4184C17.6667 20.5272 7.33334 20.5272 -3 26.4184C-13.3333 32.3095 -23.6667 32.3095 -34 26.4184C-44.3333 20.5272 -54.6667 20.5272 -65 26.4184C-75.3333 32.3095 -85.6667 32.3095 -96 26.4184C-106.333 20.5272 -116.667 20.5272 -127 26.4184C-137.333 32.3095 -147.667 32.3095 -158 26.4184C-168.333 20.5272 -178.667 20.5272 -189 26.4184C-199.333 32.3095 -209.667 32.3095 -220 26.4184C-230.333 20.5272 -240.667 20.5272 -251 26.4184C-261.333 32.3095 -271.667 32.3095 -282 26.4184C-292.333 20.5272 -302.667 20.5272 -313 26.4184C-323.333 32.3095 -333.667 32.3095 -344 26.4184Z" fill="url(#paint2_linear_504:12058)"/>
<defs>
<linearGradient id="paint0_linear_504:12058" x1="167.72" y1="-4.32294e-07" x2="167.99" y2="36.8364" gradientUnits="userSpaceOnUse">
<stop stop-color="#57A7F1"/>
<stop offset="1" stop-color="#3377B6"/>
</linearGradient>
<linearGradient id="paint1_linear_504:12058" x1="135.72" y1="10" x2="136" y2="47.5" gradientUnits="userSpaceOnUse">
<stop stop-color="#60B0F9"/>
<stop offset="1" stop-color="#3377B6"/>
</linearGradient>
<linearGradient id="paint2_linear_504:12058" x1="89.7197" y1="22" x2="90" y2="59.5" gradientUnits="userSpaceOnUse">
<stop stop-color="#79BFFF"/>
<stop offset="1" stop-color="#3377B6"/>
</linearGradient>
</defs>
</svg>
